<svg width="648" height="638" viewBox="0 0 648 638" fill="none" xmlns="http://www.w3.org/2000/svg">
<ellipse cx="324" cy="319" rx="324" ry="319" fill="white"/>
<path d="M396 190H412L404 174V110C404 101.513 400.629 93.3737 394.627 87.3726C388.626 81.3714 380.487 78 372 78H340V102L364 110V158C364 166.487 367.371 174.626 373.373 180.627C379.374 186.629 387.513 190 396 190Z" fill="#61311C"/>
<path d="M268 326L276 374L268 406H380L372 374L380 326H268Z" fill="#FEC093"/>
<path d="M268 406L252 446L145.918 458.48C137.676 459.45 130.076 463.411 124.561 469.613C119.046 475.815 116 483.825 116 492.124C116 501.108 119.569 509.725 125.922 516.078C132.275 522.431 140.892 526 149.876 526H498.124C507.108 526 515.725 522.431 522.078 516.078C528.431 509.725 532 501.108 532 492.124C532 483.825 528.954 475.815 523.439 469.613C517.924 463.411 510.324 459.45 502.082 458.48L396 446L380 406H268Z" fill="#B03B8D"/>
<path d="M316 366H332V406H316V366Z" fill="#F5A76E"/>
<path d="M460 434C460.002 435.576 459.693 437.138 459.091 438.595C458.489 440.052 457.605 441.375 456.49 442.49C455.375 443.605 454.052 444.489 452.595 445.091C451.138 445.693 449.577 446.002 448 446H444L364 486L299.77 500.6L188 526H148.55C140.018 525.995 131.829 522.639 125.746 516.656C119.663 510.673 116.172 502.541 116.026 494.01C115.879 485.479 119.087 477.232 124.961 471.043C130.834 464.854 138.903 461.219 147.43 460.92L292.32 455.92L348 454L352.12 437.52C353.15 433.404 355.772 429.866 359.41 427.683C363.048 425.5 367.404 424.852 371.52 425.88L388 430L420 422H448C451.183 422 454.235 423.264 456.485 425.515C458.736 427.765 460 430.817 460 434Z" fill="#F7B488"/>
<path d="M299.77 500.6L188 526H148.55C140.018 525.995 131.829 522.639 125.746 516.656C119.663 510.673 116.172 502.541 116.026 494.01C115.879 485.479 119.087 477.232 124.961 471.043C130.834 464.854 138.903 461.219 147.43 460.92L292.32 455.92L299.77 500.6Z" fill="#BC4598"/>
<path d="M531.98 494.614C531.363 512.238 516.442 526 498.807 526H460L348.23 500.6L284 486L204 446H200C196.817 446 193.765 444.736 191.515 442.485C189.264 440.235 188 437.183 188 434C188 430.817 189.264 427.765 191.515 425.515C193.765 423.264 196.817 422 200 422H228L260 430L276.478 425.881C280.594 424.853 284.95 425.501 288.589 427.684C292.227 429.867 294.849 433.406 295.878 437.522L300 454L355.68 455.92L500.57 460.92C504.846 461.066 509.051 462.054 512.945 463.827C516.839 465.6 520.345 468.124 523.262 471.254C526.179 474.383 528.451 478.057 529.947 482.066C531.443 486.074 532.134 490.338 531.98 494.614Z" fill="#FEC093"/>
<path d="M532 493.45C532 497.725 531.159 501.958 529.523 505.907C527.888 509.856 525.49 513.445 522.467 516.467C519.445 519.49 515.856 521.888 511.907 523.523C507.958 525.159 503.725 526.001 499.45 526H460L348.23 500.6L355.68 455.92L500.57 460.92C509.004 461.208 516.997 464.762 522.861 470.831C528.725 476.9 532.002 485.011 532 493.45Z" fill="#BC4598"/>
<path d="M556 438V462L532 470L519.45 465.82L510.85 462.95L508.81 462.27L494.91 457.64L484 454L460 425.2L457.33 422L404 358L388 270L364 294H284L260 270L244 358L190.67 422L188 425.2L164 454L153.09 457.64L139.19 462.27L137.15 462.95L128.55 465.82L116 470L92 462V438L124 422C119.757 422 115.687 420.314 112.686 417.314C109.686 414.313 108 410.243 108 406H156L204 342L223.11 240.1C224.485 232.764 228.381 226.14 234.124 221.374C239.868 216.607 247.097 213.999 254.56 214H300V158H348V214H393.44C400.903 213.999 408.132 216.607 413.876 221.374C419.619 226.14 423.515 232.764 424.89 240.1L444 342L492 406H540C540 410.243 538.314 414.313 535.314 417.314C532.313 420.314 528.243 422 524 422L556 438Z" fill="#FEC093"/>
<path d="M348 158V198.04C341.066 203.208 332.648 206 324 206C315.352 206 306.934 203.208 300 198.04V158H348Z" fill="#F5A76E"/>
<path d="M282 150H296V122.333H282C278.309 122.311 274.761 123.756 272.135 126.351C269.51 128.945 268.022 132.476 268 136.167C268.022 139.858 269.51 143.389 272.135 145.983C274.761 148.577 278.309 150.022 282 150Z" fill="#F7B488"/>
<path d="M367 122.333H354V150H367C374.18 150 380 143.807 380 136.167C380 128.527 374.18 122.333 367 122.333Z" fill="#F7B488"/>
<path d="M324 190C306.369 190 291 178.655 286.724 162.483L285.53 157.967C284.515 154.133 284.001 150.185 284 146.219V123.819C284 102.932 301.909 86 324 86C346.091 86 364 102.932 364 123.818V146.218C363.999 150.184 363.485 154.132 362.47 157.966L361.276 162.482C357 178.655 341.631 190 324 190Z" fill="#FEC093"/>
<path d="M333.6 90.255C333.6 90.255 343.2 109.092 369.32 134C371.098 125.817 371.997 117.466 372 109.092C372 83.084 350.51 62 324 62C297.49 62 276 83.084 276 109.092C276.003 113.937 276.305 118.778 276.905 123.586C291.694 118.317 312.767 116.073 333.6 90.255Z" fill="#6E3C26"/>
<path d="M380 326C384.799 322.161 388.673 317.291 391.335 311.752C393.998 306.213 395.38 300.146 395.38 294C395.38 287.854 393.998 281.787 391.335 276.248C388.673 270.709 384.799 265.839 380 262L372 214H356L352.707 230.466C351.38 237.102 347.794 243.074 342.56 247.364C337.327 251.655 330.768 254 324 254C317.232 254 310.674 251.655 305.44 247.364C300.206 243.074 296.62 237.102 295.293 230.466L292 214H276L268 262C263.201 265.839 259.327 270.709 256.665 276.248C254.002 281.787 252.62 287.854 252.62 294C252.62 300.146 254.002 306.213 256.665 311.752C259.327 317.291 263.201 322.161 268 326H380Z" fill="#C378CB"/>
</svg>
