<svg width="37" height="37" viewBox="0 0 37 37" fill="none" xmlns="http://www.w3.org/2000/svg">
<path d="M25.8215 35.916H2.87677C2.17948 35.916 1.61212 35.3486 1.61212 34.6513V22.4353C1.61212 22.136 1.36953 21.8933 1.07013 21.8933C0.770733 21.8933 0.528137 22.136 0.528137 22.4353V34.6513C0.528137 35.9464 1.5817 36.9999 2.87677 36.9999H25.8215C26.1209 36.9999 26.3635 36.7573 26.3635 36.458C26.3635 36.1586 26.1209 35.916 25.8215 35.916Z" fill="#5A5A5A"/>
<path d="M34.1233 3.5374H31.4963V2.25657C31.4963 1.0123 30.484 0 29.2396 0C27.9954 0 26.9831 1.0123 26.9831 2.25657V3.5374H10.0169V2.25657C10.0169 1.0123 9.00461 0 7.76041 0C6.51607 0 5.50377 1.0123 5.50377 2.25657V3.5374H2.87677C1.5817 3.5374 0.528137 4.59096 0.528137 5.88603V20.0733C0.528137 20.3727 0.770733 20.6153 1.07013 20.6153C1.36953 20.6153 1.61212 20.3727 1.61212 20.0733V12.4117H12.9893C13.2887 12.4117 13.5313 12.1691 13.5313 11.8697C13.5313 11.5703 13.2887 11.3277 12.9893 11.3277H1.61212V5.88603C1.61212 5.18874 2.17948 4.62139 2.87677 4.62139H5.50377V5.9023C5.50377 7.14656 6.51607 8.15886 7.76041 8.15886C9.00468 8.15886 10.017 7.14656 10.017 5.9023V4.62139H26.9831V5.9023C26.9831 7.14656 27.9954 8.15886 29.2397 8.15886C30.484 8.15886 31.4963 7.14656 31.4963 5.9023V4.62139H34.1234C34.8207 4.62139 35.3881 5.18874 35.3881 5.88603V11.3278H15.3514C15.052 11.3278 14.8094 11.5704 14.8094 11.8698C14.8094 12.1692 15.052 12.4118 15.3514 12.4118H35.388V34.6514C35.388 35.3487 34.8206 35.916 34.1233 35.916H28.1416C27.8422 35.916 27.5996 36.1586 27.5996 36.458C27.5996 36.7574 27.8422 37 28.1416 37H34.1233C35.4184 37 36.472 35.9464 36.472 34.6514V5.88603C36.4719 4.59096 35.4183 3.5374 34.1233 3.5374ZM8.93292 5.9023C8.93292 6.54886 8.40697 7.07488 7.76034 7.07488C7.11378 7.07488 6.58768 6.54893 6.58768 5.9023V2.25657C6.58775 1.60993 7.11378 1.08398 7.76041 1.08398C8.40697 1.08398 8.93299 1.60993 8.93299 2.25657V5.9023H8.93292ZM30.4123 5.9023C30.4123 6.54886 29.8863 7.07488 29.2396 7.07488C28.5931 7.07488 28.067 6.54893 28.067 5.9023V2.25657C28.067 1.61001 28.593 1.08398 29.2396 1.08398C29.8862 1.08398 30.4123 1.60993 30.4123 2.25657V5.9023Z" fill="#5A5A5A"/>
<path d="M16.1922 22.0726H20.8077C21.505 22.0726 22.0724 21.5052 22.0724 20.8079V16.1924C22.0724 15.4951 21.505 14.9277 20.8077 14.9277H16.1922C15.4949 14.9277 14.9276 15.4951 14.9276 16.1924V20.8079C14.9276 21.5052 15.4949 22.0726 16.1922 22.0726ZM16.0115 16.1923C16.0115 16.0927 16.0925 16.0116 16.1922 16.0116H20.8077C20.9074 16.0116 20.9884 16.0927 20.9884 16.1923V20.8078C20.9884 20.9075 20.9074 20.9885 20.8077 20.9885H16.1922C16.0925 20.9885 16.0115 20.9075 16.0115 20.8078V16.1923Z" fill="#5A5A5A"/>
<path d="M6.55035 22.1209H11.1659C11.8632 22.1209 12.4305 21.5535 12.4305 20.8563V16.2407C12.4305 15.5434 11.8632 14.9761 11.1659 14.9761H6.55035C5.85306 14.9761 5.28571 15.5434 5.28571 16.2407V20.8563C5.28571 21.5535 5.85306 22.1209 6.55035 22.1209ZM6.36969 16.2407C6.36969 16.141 6.4507 16.06 6.55035 16.06H11.1659C11.2655 16.06 11.3465 16.141 11.3465 16.2407V20.8562C11.3465 20.9558 11.2655 21.0368 11.1659 21.0368H6.55035C6.4507 21.0368 6.36969 20.9558 6.36969 20.8562V16.2407Z" fill="#5A5A5A"/>
<path d="M16.2408 32.6924H20.8564C21.5537 32.6924 22.121 32.1251 22.121 31.4278V26.8123C22.121 26.115 21.5537 25.5476 20.8564 25.5476H16.2408C15.5436 25.5476 14.9762 26.115 14.9762 26.8123V31.4278C14.9762 32.1251 15.5436 32.6924 16.2408 32.6924ZM16.0602 26.8122C16.0602 26.7125 16.1412 26.6315 16.2408 26.6315H20.8564C20.956 26.6315 21.037 26.7125 21.037 26.8122V31.4277C21.037 31.5274 20.956 31.6084 20.8564 31.6084H16.2408C16.1412 31.6084 16.0602 31.5274 16.0602 31.4277V26.8122Z" fill="#5A5A5A"/>
<path d="M26.3176 22.0726H30.9332C31.6305 22.0726 32.1979 21.5052 32.1979 20.8079V16.1924C32.1979 15.4951 31.6305 14.9277 30.9332 14.9277H26.3176C25.6203 14.9277 25.053 15.4951 25.053 16.1924V20.8079C25.053 21.5052 25.6203 22.0726 26.3176 22.0726ZM26.137 16.1923C26.137 16.0927 26.218 16.0116 26.3176 16.0116H30.9332C31.0329 16.0116 31.1139 16.0927 31.1139 16.1923V20.8078C31.1139 20.9075 31.0329 20.9885 30.9332 20.9885H26.3176C26.218 20.9885 26.137 20.9075 26.137 20.8078V16.1923Z" fill="#5A5A5A"/>
<path d="M25.053 31.0616C25.053 31.7589 25.6203 32.3262 26.3176 32.3262H30.9332C31.6305 32.3262 32.1979 31.7589 32.1979 31.0616V26.446C32.1979 25.7488 31.6305 25.1814 30.9332 25.1814H26.3176C25.6203 25.1814 25.053 25.7488 25.053 26.446V31.0616ZM31.1139 30.4757L29.392 28.7538L31.1139 27.0318V30.4757ZM30.3473 31.2422H26.9035L28.6254 29.5203L30.3473 31.2422ZM28.6254 27.9873L26.9036 26.2654H30.3472L28.6254 27.9873ZM27.8588 28.7538L26.1369 30.4757V27.0319L27.8588 28.7538Z" fill="#5A5A5A"/>
<path d="M5.02716 31.0616C5.02716 31.7589 5.59452 32.3262 6.29181 32.3262H10.9073C11.6046 32.3262 12.172 31.7589 12.172 31.0616V26.446C12.172 25.7488 11.6046 25.1814 10.9073 25.1814H6.29181C5.59452 25.1814 5.02716 25.7488 5.02716 26.446V31.0616ZM6.11114 26.446C6.11114 26.3464 6.19215 26.2654 6.29181 26.2654H10.9073C11.007 26.2654 11.088 26.3464 11.088 26.446V31.0616C11.088 31.1612 11.007 31.2422 10.9073 31.2422H6.29181C6.19215 31.2422 6.11114 31.1612 6.11114 31.0616V26.446Z" fill="#5A5A5A"/>
</svg>
