<svg width="40" height="42" viewBox="0 0 40 42" fill="none" xmlns="http://www.w3.org/2000/svg">
<g clip-path="url(#clip0_125_12725)">
<path d="M25.4225 24.1674C25.2706 24.6163 25.1019 25.0645 24.9203 25.4999C24.8604 25.6364 24.7519 25.7427 24.6181 25.7961C24.4844 25.8496 24.336 25.8458 24.2049 25.7857C24.0737 25.7256 23.9703 25.6139 23.9166 25.4746C23.863 25.3353 23.8636 25.1795 23.9181 25.0405C24.0894 24.6297 24.2487 24.2068 24.3919 23.7835C24.4159 23.7124 24.4531 23.647 24.5012 23.5909C24.5493 23.5349 24.6075 23.4894 24.6724 23.457C24.7372 23.4246 24.8076 23.4059 24.8793 23.402C24.9511 23.3981 25.0229 23.4091 25.0906 23.4344C25.1583 23.4596 25.2206 23.4986 25.274 23.5492C25.3273 23.5997 25.3707 23.6608 25.4016 23.7289C25.4324 23.797 25.4502 23.8709 25.4539 23.9462C25.4576 24.0216 25.4471 24.097 25.4231 24.1681L25.4225 24.1674ZM40 12.1269C40.0023 17.3675 38.0636 22.4036 34.5937 26.1706C36.4081 26.9764 38.0563 28.1442 39.4469 29.6094L39.8397 30.0221C39.8905 30.0754 39.9308 30.1387 39.9583 30.2083C39.9858 30.278 40 30.3526 40 30.428C40 30.5034 39.9858 30.5781 39.9583 30.6477C39.9308 30.7174 39.8905 30.7806 39.8397 30.8339L39.4469 31.2467C37.4528 33.3539 34.9413 34.8392 32.1915 35.5375C29.4417 36.2357 26.5613 36.1196 23.8706 35.2019C23.0429 36.6827 22.0392 38.0469 20.8837 39.2618C20.7677 39.3837 20.6299 39.4804 20.4782 39.5463C20.3265 39.6123 20.164 39.6463 19.9998 39.6463C19.8357 39.6463 19.6731 39.6123 19.5215 39.5463C19.3698 39.4804 19.232 39.3837 19.1159 39.2618C17.9607 38.0467 16.957 36.6825 16.129 35.2019C13.4384 36.1195 10.5581 36.2357 7.80831 35.5374C5.05855 34.8392 2.54709 33.3539 0.553102 31.2467L0.160289 30.8339C0.109474 30.7806 0.0691598 30.7174 0.0416541 30.6477C0.0141484 30.5781 -9.46753e-06 30.5034 -9.46753e-06 30.428C-9.46753e-06 30.3526 0.0141484 30.278 0.0416541 30.2083C0.0691598 30.1387 0.109474 30.0754 0.160289 30.0221L0.553102 29.6094C1.9399 28.1473 3.58316 26.9811 5.39216 26.1749C4.61332 25.3252 3.90618 24.4062 3.27873 23.4281C3.23529 23.3658 3.20428 23.2949 3.18757 23.2196C3.17085 23.1444 3.16877 23.0664 3.18144 22.9903C3.19411 22.9142 3.22128 22.8415 3.26132 22.7767C3.30135 22.7119 3.35344 22.6562 3.41445 22.613C3.47546 22.5698 3.54414 22.54 3.61639 22.5254C3.68863 22.5107 3.76295 22.5115 3.83489 22.5277C3.90683 22.5439 3.97492 22.5752 4.03507 22.6197C4.09523 22.6642 4.14621 22.721 4.18498 22.7867C5.7924 25.2975 7.94497 27.3714 10.4653 28.8375C12.9857 30.3037 15.8018 31.1201 18.6815 31.2195C15.3183 27.4743 13.4506 22.5178 13.4628 17.3703C13.4628 17.221 13.4703 17.0733 13.4734 16.9247C10.1304 13.7287 5.77106 11.9591 1.24998 11.9628H1.09373V12.1269C1.09212 14.054 1.36794 15.9704 1.91185 17.811C1.93409 17.8832 1.94246 17.9594 1.93646 18.0351C1.93047 18.1108 1.91024 18.1845 1.87694 18.2519C1.84365 18.3193 1.79794 18.3791 1.74248 18.4279C1.68701 18.4766 1.62289 18.5133 1.55382 18.5359C1.48476 18.5584 1.41211 18.5663 1.34011 18.5592C1.2681 18.5521 1.19815 18.53 1.13432 18.4943C1.07048 18.4586 1.01403 18.4099 0.968228 18.3512C0.922425 18.2924 0.88818 18.2247 0.867477 18.1519C0.290776 16.2009 -0.00169597 14.1696 -2.33843e-05 12.1269V11.3886C5.94104e-05 11.2363 0.057703 11.0903 0.160244 10.9826C0.262785 10.875 0.401837 10.8144 0.546852 10.8144H1.24998C3.02749 10.8143 4.7965 11.072 6.50685 11.5802C6.63657 9.71941 7.01084 7.88641 7.61904 6.13333L7.85935 5.43934C7.90902 5.29621 8.01079 5.17964 8.1423 5.11528C8.2738 5.05092 8.42426 5.04403 8.5606 5.09613L9.22123 5.34878C11.4019 6.17841 13.4212 7.41656 15.1809 9.00311C16.1407 6.78442 17.4738 4.76574 19.1162 3.04403L19.6131 2.52199C19.7176 2.41804 19.856 2.36011 20 2.36011C20.1439 2.36011 20.2824 2.41804 20.3869 2.52199L20.884 3.04403C22.5259 4.76605 23.859 6.78439 24.8197 9.00245C26.5794 7.41633 28.5984 6.17831 30.7787 5.34845L31.4394 5.09613C31.5069 5.07029 31.5786 5.05867 31.6503 5.06193C31.7221 5.0652 31.7926 5.08328 31.8577 5.11516C31.9228 5.14703 31.9813 5.19207 32.0299 5.24769C32.0784 5.30332 32.116 5.36844 32.1406 5.43934L32.3809 6.13333C32.989 7.88646 33.3634 9.71943 33.4934 11.5802C35.2037 11.072 36.9726 10.8143 38.75 10.8144H39.4531C39.5981 10.8144 39.7372 10.875 39.8397 10.9826C39.9422 11.0903 39.9999 11.2363 40 11.3886V12.1269ZM25.2653 10.1214C25.893 11.8385 26.2925 13.6382 26.4528 15.4698C28.2233 13.9264 30.2433 12.7292 32.4165 11.9349C32.3138 10.0865 31.9553 8.26374 31.3525 6.5238L31.299 6.36958L31.1522 6.42536C28.9834 7.25199 26.9852 8.50653 25.2653 10.1214ZM13.5497 15.4734C13.7109 13.6413 14.1104 11.8409 14.7372 10.1227C13.0164 8.50733 11.0171 7.25276 8.84716 6.42667L8.70029 6.37056L8.64685 6.52478C8.04442 8.26477 7.68649 10.0876 7.58435 11.9359C9.75835 12.7308 11.7788 13.929 13.5497 15.4734ZM16.104 33.9967H16.1065C16.1616 33.9651 16.2214 33.9438 16.2834 33.9337C17.312 33.5371 18.2939 33.0178 19.2097 32.386C14.4081 32.366 9.78654 30.4648 6.24998 27.0546C4.40238 27.8025 2.72502 28.9495 1.32654 30.4215L1.32029 30.428L1.32654 30.4346C3.21873 32.4318 5.61045 33.8261 8.22538 34.4564C10.8403 35.0867 13.5717 34.9274 16.104 33.9967ZM22.8269 34.8026C21.8346 34.3771 20.8872 33.8443 20 33.2128C19.1127 33.8442 18.1653 34.377 17.1731 34.8026C17.9344 36.1294 18.8465 37.354 19.8894 38.4497C19.9019 38.4681 19.9185 38.4831 19.9377 38.4935C19.9569 38.5039 19.9782 38.5093 19.9998 38.5093C20.0214 38.5093 20.0427 38.5039 20.0619 38.4935C20.0811 38.4831 20.0977 38.4681 20.1103 38.4497C21.1533 37.3541 22.0655 36.1294 22.8269 34.8026ZM38.6734 30.4215C37.2724 28.9466 35.5914 27.7978 33.7397 27.05C30.2088 30.4642 25.589 32.3676 20.789 32.386C21.7051 33.0169 22.687 33.5355 23.7156 33.9314C23.778 33.9412 23.8382 33.9625 23.8934 33.9944L23.8962 33.9964C26.4285 34.9272 29.1599 35.0866 31.7749 34.4562C34.3898 33.8258 36.7814 32.4313 38.6734 30.4339L38.6797 30.4274L38.6734 30.4215ZM38.9062 11.9628H38.75C34.2292 11.959 29.87 13.7284 26.5272 16.924C26.5489 17.9327 26.4999 18.9417 26.3806 19.9428C26.3623 20.0938 26.2877 20.231 26.173 20.3243C26.0584 20.4175 25.9132 20.4591 25.7694 20.4399C25.6255 20.4207 25.4948 20.3423 25.406 20.222C25.3173 20.1016 25.2776 19.9491 25.2959 19.7981C25.4179 18.7802 25.463 17.7538 25.4309 16.7285C25.4278 16.6958 25.4273 16.6628 25.4294 16.63C25.355 14.4389 24.9189 12.278 24.1406 10.2434C24.1185 10.2021 24.1015 10.158 24.09 10.1122C23.1711 7.77073 21.8185 5.64424 20.1106 3.85614L20 3.74064L19.8897 3.8568C18.1772 5.64967 16.8229 7.7835 15.9062 10.1332C15.9005 10.1513 15.894 10.1692 15.8865 10.1867C14.5465 13.6689 14.2115 17.488 14.9233 21.1686C15.635 24.8492 17.362 28.2287 19.8894 30.8864L20 31.0022L20.1103 30.8864C20.8394 30.1209 21.506 29.2924 22.1031 28.4097C22.1442 28.3471 22.1967 28.2936 22.2576 28.2524C22.3186 28.2112 22.3867 28.1832 22.458 28.1699C22.5294 28.1566 22.6025 28.1583 22.6732 28.1749C22.7439 28.1916 22.8108 28.2228 22.8699 28.2668C22.929 28.3108 22.9792 28.3667 23.0176 28.4312C23.0559 28.4958 23.0817 28.5677 23.0934 28.6428C23.105 28.7179 23.1024 28.7947 23.0855 28.8687C23.0687 28.9427 23.038 29.0124 22.9953 29.0739C22.4831 29.8298 21.9224 30.5482 21.3172 31.2241C26.0335 31.0521 30.5023 28.9655 33.783 25.4036C37.0636 21.8417 38.9002 17.0823 38.9062 12.1272V11.9628Z" fill="#5A5A5A"/>
</g>
<defs>
<clipPath id="clip0_125_12725">
<rect width="40" height="42" fill="white"/>
</clipPath>
</defs>
</svg>
