<svg width="43" height="41" viewBox="0 0 43 41" fill="none" xmlns="http://www.w3.org/2000/svg">
<g clip-path="url(#clip0_125_11903)">
<path d="M33.4866 11.8792L34.7662 10.2092C35.0169 10.3664 35.3009 10.4433 35.5831 10.4433C36.0435 10.4433 36.4981 10.2413 36.7899 9.86042L37.2087 9.31397C37.8355 8.53032 37.6375 7.31706 36.7904 6.75227L34.2774 5.00144C33.4556 4.40358 32.1831 4.59248 31.5906 5.40015L31.172 5.9466C30.9368 6.25346 30.8411 6.62927 30.9024 7.00475C30.9599 7.35702 31.1505 7.66828 31.4393 7.89066L30.1622 9.55708C28.3683 8.58798 26.38 7.90996 24.2678 7.59101V5.00777H24.8965C25.7193 5.00777 26.3886 4.36954 26.3886 3.58502V2.21624C26.3886 0.99417 25.3458 0 24.0642 0H18.9358C17.6542 0 16.6114 0.99417 16.6114 2.21624V3.5851C16.6114 4.36962 17.2808 5.00785 18.1036 5.00785H18.7323V7.59157C16.6417 7.90788 14.6472 8.57805 12.8349 9.55332L11.5607 7.89074C11.8496 7.66836 12.0401 7.3571 12.0976 7.00483C12.1589 6.62935 12.0632 6.25354 11.8281 5.94668L11.4093 5.40023C10.8169 4.59256 9.54448 4.40358 8.72261 5.00152L6.20963 6.75219C5.36247 7.31706 5.16452 8.53024 5.79138 9.31397L6.21013 9.8605C6.50197 10.2414 6.95641 10.4434 7.4169 10.4434C7.69917 10.4434 7.98321 10.3664 8.23382 10.2092L9.50719 11.8711C8.12674 13.0924 6.93978 14.5343 6.00991 16.1618C5.84312 16.4537 5.95608 16.8191 6.2622 16.9782C6.56832 17.1373 6.95154 17.0295 7.11834 16.7376C9.99077 11.71 15.5016 8.58678 21.5 8.58678C30.5243 8.58678 37.866 15.587 37.866 24.1916C37.866 27.939 36.4523 31.5618 33.8853 34.3927C33.6573 34.644 33.6862 35.0241 33.9499 35.2414C34.2124 35.4581 34.6114 35.432 34.8401 35.1798C37.6053 32.1302 39.1283 28.2279 39.1283 24.1915C39.1283 19.3333 36.9545 14.9507 33.4866 11.8792ZM32.1911 6.65665L32.6099 6.1102C32.8137 5.83297 33.2492 5.76763 33.5327 5.97327L36.0458 7.72402C36.3399 7.92886 36.4044 8.32356 36.1894 8.60399L35.7708 9.15045C35.696 9.24806 35.5519 9.26936 35.4495 9.19817L32.2411 6.96303C32.1742 6.91643 32.155 6.85333 32.1495 6.81977C32.144 6.78622 32.1422 6.72048 32.1911 6.65665ZM32.4563 8.60343L33.7454 9.50143L32.5287 11.0894C32.1142 10.7716 31.6846 10.4713 31.2407 10.1895L32.4563 8.60343ZM17.8737 3.58502V2.21624C17.8737 1.65786 18.3502 1.20357 18.9358 1.20357H24.0642C24.6498 1.20357 25.1263 1.65786 25.1263 2.21624V3.5851C25.1263 3.70602 25.0231 3.80435 24.8963 3.80435H18.1037C17.9768 3.80427 17.8737 3.70594 17.8737 3.58502ZM7.22928 9.15045L6.81053 8.60399C6.5957 8.32364 6.66012 7.92886 6.95423 7.72402L9.46738 5.97327C9.75099 5.76763 10.1865 5.83305 10.3902 6.1102L10.8089 6.65673C10.8835 6.79215 10.8732 6.85573 10.7589 6.96303L7.55052 9.19809C7.44823 9.26936 7.30411 9.24798 7.22928 9.15045ZM9.25465 9.50143L10.5437 8.60343L11.7549 10.1838C11.3116 10.4641 10.8817 10.7641 10.466 11.0822L9.25465 9.50143ZM19.9946 7.44446V5.00777H23.0054V7.44518C22.509 7.40498 22.0072 7.38328 21.5 7.38328C20.9946 7.38328 20.4924 7.40386 19.9946 7.44446Z" fill="#5A5A5A"/>
<path d="M32.1636 36.0297C29.2003 38.4587 25.4132 39.7964 21.5 39.7964C12.4757 39.7964 5.13395 32.7962 5.13395 24.1916C5.13395 22.3581 5.46409 20.5629 6.11531 18.8562C6.23448 18.5439 6.06551 18.1986 5.73797 18.0849C5.41051 17.9712 5.04829 18.1323 4.92911 18.4447C4.22742 20.2837 3.87158 22.2173 3.87158 24.1916C3.87175 33.4598 11.7797 41 21.5 41C25.715 41 29.7943 39.559 32.9864 36.9424C33.2507 36.7257 33.2807 36.3458 33.0535 36.0938C32.8263 35.8418 32.4278 35.8132 32.1636 36.0297Z" fill="#5A5A5A"/>
<path d="M30.4487 14.3349C30.6645 14.074 30.6178 13.6957 30.3441 13.4898C27.8027 11.5778 24.7444 10.5673 21.5001 10.5673C13.621 10.5673 7.21097 16.6791 7.21097 24.1917C7.21097 31.7043 13.621 37.8162 21.5001 37.8162C29.3792 37.8162 35.7892 31.7043 35.7892 24.1917C35.7892 20.8913 34.5355 17.7071 32.2593 15.2258C32.0299 14.9756 31.6312 14.9502 31.3688 15.169C31.1065 15.3878 31.0798 15.7679 31.3093 16.0182C33.2455 18.1289 34.3696 20.7977 34.5113 23.59H32.5748C32.2262 23.59 31.9436 23.8594 31.9436 24.1918C31.9436 24.5241 32.2261 24.7935 32.5748 24.7935H34.5114C34.191 31.1646 28.813 36.2924 22.1311 36.5979V34.7513C22.1311 34.419 21.8485 34.1495 21.5 34.1495C21.1515 34.1495 20.8688 34.4189 20.8688 34.7513V36.5979C14.187 36.2924 8.80902 31.1646 8.48862 24.7935H10.4252C10.7738 24.7935 11.0564 24.5241 11.0564 24.1918C11.0564 23.8594 10.7738 23.59 10.4252 23.59H8.48862C8.80894 17.2189 14.187 12.091 20.8688 11.7856V13.6321C20.8688 13.9644 21.1514 14.2339 21.5 14.2339C21.8485 14.2339 22.1311 13.9645 22.1311 13.6321V11.7853C24.8537 11.907 27.4112 12.8164 29.5622 14.4346C29.8359 14.6404 30.2328 14.5958 30.4487 14.3349Z" fill="#5A5A5A"/>
<path d="M21.5 21.8831C20.1649 21.8831 19.0787 22.9187 19.0787 24.1917C19.0787 25.4647 20.1649 26.5004 21.5 26.5004C21.9389 26.5004 22.3505 26.3878 22.7059 26.1925L27.0362 30.3214C27.2827 30.5564 27.6823 30.5564 27.9287 30.3214C28.1752 30.0864 28.1752 29.7053 27.9287 29.4704L23.5984 25.3415C23.8034 25.0027 23.9213 24.6102 23.9213 24.1918C23.9214 22.9186 22.8351 21.8831 21.5 21.8831ZM20.3409 24.1917C20.3409 23.5823 20.8609 23.0865 21.5 23.0865C22.1391 23.0865 22.6591 23.5823 22.6591 24.1917C22.6591 24.8011 22.1391 25.2968 21.5 25.2968C20.8609 25.2968 20.3409 24.801 20.3409 24.1917Z" fill="#5A5A5A"/>
</g>
<defs>
<clipPath id="clip0_125_11903">
<rect width="43" height="41" fill="white"/>
</clipPath>
</defs>
</svg>
